<?xml version="1.0" encoding="UTF-8" standalone="no"?>
<!-- Svg Vector Icons : http://www.onlinewebfonts.com/icon -->

<svg
   fill="#f5c2e7"
   version="1.1"
   x="0px"
   y="0px"
   viewBox="0 0 1000 1000"
   enable-background="new 0 0 1000 1000"
   xml:space="preserve"
   id="svg4"
   sodipodi:docname="logout.svg"
   inkscape:version="1.4.2 (ebf0e940d0, 2025-05-08)"
   xmlns:inkscape="http://www.inkscape.org/namespaces/inkscape"
   xmlns:sodipodi="http://sodipodi.sourceforge.net/DTD/sodipodi-0.dtd"
   xmlns="http://www.w3.org/2000/svg"
   xmlns:svg="http://www.w3.org/2000/svg"><defs
   id="defs4" /><sodipodi:namedview
   id="namedview4"
   pagecolor="#ffffff"
   bordercolor="#111111"
   borderopacity="1"
   inkscape:showpageshadow="0"
   inkscape:pageopacity="0"
   inkscape:pagecheckerboard="1"
   inkscape:deskcolor="#d1d1d1"
   inkscape:zoom="0.486"
   inkscape:cx="501.02881"
   inkscape:cy="500"
   inkscape:current-layer="svg4" />
<metadata
   id="metadata1"> Svg Vector Icons : http://www.onlinewebfonts.com/icon </metadata>
<g
   id="g4"
   style="fill:#ffffff;fill-opacity:1"><path
     d="M622.5,990H50.8C26.3,990,10,973.7,10,949.2V50.8C10,26.3,26.3,10,50.8,10h571.7c24.5,0,40.8,16.3,40.8,40.8v285.8c0,24.5-16.3,40.8-40.8,40.8s-40.8-16.3-40.8-40.8v-245h-490v816.7h490v-245c0-24.5,16.3-40.8,40.8-40.8s40.8,16.3,40.8,40.8v285.8C663.3,973.7,647,990,622.5,990z"
     id="path1"
     style="fill:#ffffff;fill-opacity:1" /><path
     d="M949.2,540.8H336.7c-24.5,0-40.8-16.3-40.8-40.8c0-24.5,16.3-40.8,40.8-40.8h612.5c24.5,0,40.8,16.3,40.8,40.8C990,524.5,973.7,540.8,949.2,540.8z"
     id="path2"
     style="fill:#ffffff;fill-opacity:1" /><path
     d="M949.2,540.8c-12.3,0-20.4-4.1-28.6-12.3L757.3,365.3c-16.3-16.3-16.3-40.8,0-57.2c16.3-16.3,40.8-16.3,57.2,0l163.3,163.3c16.3,16.3,16.3,40.8,0,57.2C969.6,536.8,961.4,540.8,949.2,540.8z"
     id="path3"
     style="fill:#ffffff;fill-opacity:1" /><path
     d="M785.8,704.2c-12.3,0-20.4-4.1-28.6-12.3c-16.3-16.3-16.3-40.8,0-57.2l163.3-163.3c16.3-16.3,40.8-16.3,57.2,0c16.3,16.3,16.3,40.8,0,57.2L814.4,691.9C806.3,700.1,798.1,704.2,785.8,704.2z"
     id="path4"
     style="fill:#ffffff;fill-opacity:1" /></g>
</svg>
