<?xml version="1.0" encoding="UTF-8" standalone="no"?>
<!-- Svg Vector Icons : http://www.onlinewebfonts.com/icon -->

<svg
   fill="#f5c2e7"
   version="1.1"
   x="0px"
   y="0px"
   viewBox="0 0 1000 1000"
   enable-background="new 0 0 1000 1000"
   xml:space="preserve"
   id="svg1"
   sodipodi:docname="reboot.svg"
   inkscape:version="1.4.2 (ebf0e940d0, 2025-05-08)"
   xmlns:inkscape="http://www.inkscape.org/namespaces/inkscape"
   xmlns:sodipodi="http://sodipodi.sourceforge.net/DTD/sodipodi-0.dtd"
   xmlns="http://www.w3.org/2000/svg"
   xmlns:svg="http://www.w3.org/2000/svg"><defs
   id="defs1" /><sodipodi:namedview
   id="namedview1"
   pagecolor="#ffffff"
   bordercolor="#111111"
   borderopacity="1"
   inkscape:showpageshadow="0"
   inkscape:pageopacity="0"
   inkscape:pagecheckerboard="1"
   inkscape:deskcolor="#d1d1d1"
   inkscape:zoom="0.31312354"
   inkscape:cx="276.2488"
   inkscape:cy="712.17898"
   inkscape:current-layer="svg1" />
<metadata
   id="metadata1"> Svg Vector Icons : http://www.onlinewebfonts.com/icon </metadata>
<g
   id="g1"
   style="fill:#ffffff;fill-opacity:1;stroke:#ffffff;stroke-width:60;stroke-linecap:round;stroke-linejoin:round;stroke-dasharray:none;stroke-opacity:1;paint-order:markers stroke fill"
   transform="matrix(0.96161266,0,0,0.96161266,19.231179,19.30539)"><path
     d="M 134.6,285.6 C 64.9,420.7 60.1,590 137.1,723.4 L 42,668.5 10,723.9 C 103.1,776 143.6,799.8 194,830.1 222.5,778.6 246.8,735.7 301.4,644 L 246,612 192.6,704.5 C 65.4,502.7 167.2,200.3 398.8,126.2 638,29.3 929,223.5 931.5,481.5 951.1,718.2 722.6,925.1 492.2,897.7 l -29.5,51 C 740.4,1003.1 1019.2,747 987.4,465.6 976.1,170.8 637.1,-41.2 367.1,77.5 c -104.3,36.7 -184,114 -232.5,208.1 z"
     id="path1"
     style="fill:#ffffff;fill-opacity:1;stroke:#ffffff;stroke-width:60;stroke-linecap:round;stroke-linejoin:round;stroke-dasharray:none;stroke-opacity:1;paint-order:markers stroke fill" /></g>
</svg>
