<?xml version="1.0" encoding="UTF-8" standalone="no"?>
<!-- Created with Inkscape (http://www.inkscape.org/) -->

<svg
   width="32"
   height="32"
   viewBox="0 0 32 32"
   version="1.1"
   id="svg1"
   xml:space="preserve"
   inkscape:export-filename="terminal.svg"
   inkscape:export-xdpi="96"
   inkscape:export-ydpi="96"
   xmlns:inkscape="http://www.inkscape.org/namespaces/inkscape"
   xmlns:sodipodi="http://sodipodi.sourceforge.net/DTD/sodipodi-0.dtd"
   xmlns="http://www.w3.org/2000/svg"
   xmlns:svg="http://www.w3.org/2000/svg"><sodipodi:namedview
     id="namedview1"
     pagecolor="#ffffff"
     bordercolor="#111111"
     borderopacity="1"
     inkscape:showpageshadow="0"
     inkscape:pageopacity="0"
     inkscape:pagecheckerboard="1"
     inkscape:deskcolor="#d1d1d1"
     inkscape:document-units="px"><inkscape:page
       x="0"
       y="0"
       width="32"
       height="32"
       id="page2"
       margin="0"
       bleed="0" /></sodipodi:namedview><defs
     id="defs1" /><g
     inkscape:label="Layer 1"
     inkscape:groupmode="layer"
     id="layer1"><g
       style="fill:#000000"
       id="g10"
       transform="scale(1.3333334)"><g
         id="g9">
	<rect
   style="fill:#1e1e2e;fill-opacity:1;fill-rule:evenodd;stroke-width:0.800154"
   id="rect10"
   width="22.65597"
   height="22.440687"
   x="0.67201459"
   y="0.77965581"
   ry="6.6129174" /><g
   id="g2"
   style="fill:#ffffff;fill-opacity:1">
		<g
   id="g1"
   style="fill:#ffffff;fill-opacity:1">
			<path
   d="M 19,24 H 5 C 2.2,24 0,21.8 0,19 V 5 C 0,2.2 2.2,0 5,0 h 14 c 2.8,0 5,2.2 5,5 v 14 c 0,2.8 -2.2,5 -5,5 z M 5,2 C 3.3,2 2,3.3 2,5 v 14 c 0,1.7 1.3,3 3,3 h 14 c 1.7,0 3,-1.3 3,-3 V 5 C 22,3.3 20.7,2 19,2 Z"
   id="path1"
   style="fill:#ffffff;fill-opacity:1" />
		</g>
	</g>
	
	
	
<rect
   style="fill:#cba6f7;fill-opacity:1;fill-rule:evenodd;stroke-width:0.502843"
   id="rect11"
   width="1.7731875"
   height="20.999998"
   x="11.113406"
   y="1.5000004"
   ry="1.5100725" /><rect
   style="fill:#cba6f7;fill-opacity:1;fill-rule:evenodd;stroke-width:0.502843"
   id="rect12"
   width="1.7731875"
   height="20.999998"
   x="11.113404"
   y="-22.499998"
   ry="1.5100725"
   transform="rotate(90)" /><rect
   style="fill:#cba6f7;fill-opacity:1;fill-rule:evenodd;stroke-width:0.502843"
   id="rect13"
   width="1.7731875"
   height="20.999998"
   x="-17.857157"
   y="-10.49999"
   ry="1.5100725"
   transform="rotate(-134.99998)" /><rect
   style="fill:#cba6f7;fill-opacity:1;fill-rule:evenodd;stroke-width:0.502843"
   id="rect14"
   width="1.7731875"
   height="20.999998"
   x="-0.88660091"
   y="-27.470562"
   ry="1.5100725"
   transform="rotate(135.00002)" /></g></g></g></svg>
