<?xml version="1.0" encoding="UTF-8" standalone="no"?>
<!-- Created with Inkscape (http://www.inkscape.org/) -->

<svg
   width="32"
   height="32"
   viewBox="0 0 32 32"
   version="1.1"
   id="svg1"
   xml:space="preserve"
   inkscape:export-filename="editor.svg.png"
   inkscape:export-xdpi="96"
   inkscape:export-ydpi="96"
   sodipodi:docname="files.svg"
   xmlns:inkscape="http://www.inkscape.org/namespaces/inkscape"
   xmlns:sodipodi="http://sodipodi.sourceforge.net/DTD/sodipodi-0.dtd"
   xmlns="http://www.w3.org/2000/svg"
   xmlns:svg="http://www.w3.org/2000/svg"><sodipodi:namedview
     id="namedview1"
     pagecolor="#ffffff"
     bordercolor="#111111"
     borderopacity="1"
     inkscape:showpageshadow="0"
     inkscape:pageopacity="0"
     inkscape:pagecheckerboard="1"
     inkscape:deskcolor="#d1d1d1"
     inkscape:document-units="px"><inkscape:page
       x="0"
       y="0"
       width="32"
       height="32"
       id="page1"
       margin="0"
       bleed="0" /></sodipodi:namedview><defs
     id="defs1" /><g
     inkscape:label="Layer 1"
     inkscape:groupmode="layer"
     id="layer1"><g
       style="fill:#000000"
       id="g10"
       transform="scale(1.3333334)"><g
         id="g9">
	<rect
   style="fill:#1e1e2e;fill-opacity:1;fill-rule:evenodd;stroke-width:0.800154"
   id="rect10"
   width="22.65597"
   height="22.440687"
   x="0.67201459"
   y="0.77965581"
   ry="6.6129174" /><g
   id="g2"
   style="fill:#ffffff;fill-opacity:1">
		<g
   id="g1"
   style="fill:#ffffff;fill-opacity:1">
			<path
   d="M 19,24 H 5 C 2.2,24 0,21.8 0,19 V 5 C 0,2.2 2.2,0 5,0 h 14 c 2.8,0 5,2.2 5,5 v 14 c 0,2.8 -2.2,5 -5,5 z M 5,2 C 3.3,2 2,3.3 2,5 v 14 c 0,1.7 1.3,3 3,3 h 14 c 1.7,0 3,-1.3 3,-3 V 5 C 22,3.3 20.7,2 19,2 Z"
   id="path1"
   style="fill:#ffffff;fill-opacity:1" />
		</g>
	</g>
	
	
	
<g
   style="clip-rule:evenodd;fill-rule:evenodd;stroke-linejoin:round;stroke-miterlimit:2"
   id="g3"
   transform="matrix(0.02006793,0,0,0.02006793,-7.085786,2.1780521)"><path
     d="m 1083.58,1875.72 551.48,318.4 a 47.66,47.66 0 0 1 23.82,41.27 v 105.94 c 0,8.51 -2.27,16.7 -6.38,23.83 0,0 -437.8,-252.76 -545.3,-314.83 a 47.245,47.245 0 0 1 -23.62,-40.92 z"
     style="fill:#706bc8"
     transform="translate(-420.173,-1838.145)"
     id="path1-5" /><path
     d="m 1635.26,2604.84 a 47.228,47.228 0 0 1 23.62,40.91 v 133.69 l -551.47,-318.39 a 47.66,47.66 0 0 1 -23.83,-41.27 v -105.94 c 0,-8.52 2.27,-16.71 6.38,-23.83 0,0 437.8,252.76 545.3,314.83"
     style="fill:#55c5e4"
     transform="translate(-420.173,-1838.145)"
     id="path2" /><path
     d="m 790.407,1432.56 a 35.033,35.033 0 0 0 -12.898,12.9 c -9.647,16.7 -4.036,38.3 12.495,48.13 h -0.006 l -28.825,-16.64 a 47.644,47.644 0 0 1 -23.829,-41.27 v -105.94 c 0,-17.03 9.083,-32.76 23.829,-41.27 l 498.417,-287.73 0.24,-0.14 a 34.962,34.962 0 0 0 12.65,-12.756 c 9.65,-16.708 4.04,-38.3 -12.49,-48.137 h 0.01 l 28.82,16.642 a 47.648,47.648 0 0 1 23.83,41.273 v 105.938 c 0,17.03 -9.08,32.76 -23.83,41.27 l -29.63,17.11 0.4,-0.26 z"
     style="fill:#84ddea"
     transform="translate(-73.938,-854.05)"
     id="path3" /><path
     d="m 790.407,1686.24 a 35.08,35.08 0 0 0 -12.898,12.89 c -9.647,16.71 -4.036,38.3 12.495,48.14 h -0.006 l -28.825,-16.64 a 47.656,47.656 0 0 1 -23.829,-41.27 v -105.94 c 0,-17.03 9.083,-32.76 23.829,-41.27 l 498.417,-287.73 0.24,-0.14 c 5.09,-2.99 9.5,-7.29 12.65,-12.76 9.65,-16.71 4.04,-38.3 -12.49,-48.14 h 0.01 l 28.82,16.65 a 47.636,47.636 0 0 1 23.83,41.27 v 105.94 c 0,17.02 -9.08,32.76 -23.83,41.27 l -29.63,17.1 0.4,-0.25 z"
     style="fill:#997bc8"
     transform="translate(-73.938,-854.05)"
     id="path4" /></g></g></g></g></svg>
