<?xml version="1.0" encoding="UTF-8" standalone="no"?>
<!-- Created with Inkscape (http://www.inkscape.org/) -->

<svg
   width="32"
   height="32"
   viewBox="0 0 32 32"
   version="1.1"
   id="svg1"
   xml:space="preserve"
   inkscape:export-filename="browser.svg"
   inkscape:export-xdpi="96"
   inkscape:export-ydpi="96"
   xmlns:inkscape="http://www.inkscape.org/namespaces/inkscape"
   xmlns:sodipodi="http://sodipodi.sourceforge.net/DTD/sodipodi-0.dtd"
   xmlns="http://www.w3.org/2000/svg"
   xmlns:svg="http://www.w3.org/2000/svg"><sodipodi:namedview
     id="namedview1"
     pagecolor="#ffffff"
     bordercolor="#111111"
     borderopacity="1"
     inkscape:showpageshadow="0"
     inkscape:pageopacity="0"
     inkscape:pagecheckerboard="1"
     inkscape:deskcolor="#d1d1d1"
     inkscape:document-units="px"><inkscape:page
       x="0"
       y="0"
       width="32"
       height="32"
       id="page2"
       margin="0"
       bleed="0" /></sodipodi:namedview><defs
     id="defs1" /><g
     inkscape:label="Layer 1"
     inkscape:groupmode="layer"
     id="layer1"><g
       style="fill:#000000"
       id="g10"
       transform="scale(1.3333334)"><g
         id="g9">
	<rect
   style="fill:#1e1e2e;fill-opacity:1;fill-rule:evenodd;stroke-width:0.800154"
   id="rect10"
   width="22.65597"
   height="22.440687"
   x="0.67201459"
   y="0.77965581"
   ry="6.6129174" /><g
   id="g2"
   style="fill:#ffffff;fill-opacity:1">
		<g
   id="g1"
   style="fill:#ffffff;fill-opacity:1">
			<path
   d="M 19,24 H 5 C 2.2,24 0,21.8 0,19 V 5 C 0,2.2 2.2,0 5,0 h 14 c 2.8,0 5,2.2 5,5 v 14 c 0,2.8 -2.2,5 -5,5 z M 5,2 C 3.3,2 2,3.3 2,5 v 14 c 0,1.7 1.3,3 3,3 h 14 c 1.7,0 3,-1.3 3,-3 V 5 C 22,3.3 20.7,2 19,2 Z"
   id="path1"
   style="fill:#ffffff;fill-opacity:1" />
		</g>
	</g>
	
	
	
<g
   id="SVGRepo_iconCarrier"
   transform="matrix(0.83750001,0,0,0.83750001,1.9500498,1.9500523)"
   style="fill:#1e1e2e;fill-opacity:1;stroke:#f38ba8;stroke-opacity:1"><path
     opacity="0.5"
     d="m 10,3 h 6.5 c 0.4644,0 0.6966,0 0.8916,0.02567 1.3462,0.17723 2.4055,1.23655 2.5827,2.58275 C 20,5.80337 20,6.03558 20,6.5"
     stroke="#1c274c"
     stroke-width="1.5"
     id="path2"
     style="fill:#1e1e2e;fill-opacity:1;stroke:#f38ba8;stroke-opacity:1" /><path
     d="M 2,6.94975 C 2,6.06722 2,5.62595 2.06935,5.25839 2.37464,3.64031 3.64031,2.37464 5.25839,2.06935 5.62595,2 6.06722,2 6.94975,2 7.33642,2 7.52976,2 7.71557,2.01738 8.51665,2.09229 9.27652,2.40704 9.89594,2.92051 10.0396,3.03961 10.1763,3.17633 10.4497,3.44975 L 11,4 c 0.8158,0.81578 1.2237,1.22367 1.7121,1.49543 0.2683,0.14928 0.553,0.26717 0.8483,0.35135 C 14.0979,6 14.6747,6 15.8284,6 h 0.3737 c 2.6324,0 3.9485,0 4.8041,0.76946 0.0787,0.07078 0.1536,0.14568 0.2243,0.22437 C 22,7.84935 22,9.16554 22,11.7979 V 14 c 0,3.7712 0,5.6569 -1.1716,6.8284 C 19.6569,22 17.7712,22 14,22 H 10 C 6.22876,22 4.34315,22 3.17157,20.8284 2,19.6569 2,17.7712 2,14 Z"
     stroke="#1c274c"
     stroke-width="1.5"
     id="path3"
     style="fill:#1e1e2e;fill-opacity:1;stroke:#f38ba8;stroke-opacity:1" /><path
     opacity="0.5"
     d="M 18,10 H 13"
     stroke="#1c274c"
     stroke-width="1.5"
     stroke-linecap="round"
     id="path1-3"
     style="opacity:1;fill:#1e1e2e;fill-opacity:1;stroke:#f38ba8;stroke-opacity:1" /></g></g></g></g></svg>
