<?xml version="1.0" encoding="UTF-8" standalone="no"?>
<!-- Created with Inkscape (http://www.inkscape.org/) -->

<svg
   width="32"
   height="32"
   viewBox="0 0 32 32"
   version="1.1"
   id="svg1"
   xml:space="preserve"
   inkscape:export-filename="music.svg"
   inkscape:export-xdpi="96"
   inkscape:export-ydpi="96"
   sodipodi:docname="files.svg"
   xmlns:inkscape="http://www.inkscape.org/namespaces/inkscape"
   xmlns:sodipodi="http://sodipodi.sourceforge.net/DTD/sodipodi-0.dtd"
   xmlns="http://www.w3.org/2000/svg"
   xmlns:svg="http://www.w3.org/2000/svg"><sodipodi:namedview
     id="namedview1"
     pagecolor="#ffffff"
     bordercolor="#111111"
     borderopacity="1"
     inkscape:showpageshadow="0"
     inkscape:pageopacity="0"
     inkscape:pagecheckerboard="1"
     inkscape:deskcolor="#d1d1d1"
     inkscape:document-units="px"><inkscape:page
       x="0"
       y="0"
       width="32"
       height="32"
       id="page1"
       margin="0"
       bleed="0" /></sodipodi:namedview><defs
     id="defs1" /><g
     inkscape:label="Layer 1"
     inkscape:groupmode="layer"
     id="layer1"><g
       style="fill:#000000"
       id="g10"
       transform="scale(1.3333334)"><g
         id="g9">
	<rect
   style="fill:#1e1e2e;fill-opacity:1;fill-rule:evenodd;stroke-width:0.800154"
   id="rect10"
   width="22.65597"
   height="22.440687"
   x="0.67201459"
   y="0.77965581"
   ry="6.6129174" /><g
   id="g2"
   style="fill:#ffffff;fill-opacity:1">
		<g
   id="g1"
   style="fill:#ffffff;fill-opacity:1">
			<path
   d="M 19,24 H 5 C 2.2,24 0,21.8 0,19 V 5 C 0,2.2 2.2,0 5,0 h 14 c 2.8,0 5,2.2 5,5 v 14 c 0,2.8 -2.2,5 -5,5 z M 5,2 C 3.3,2 2,3.3 2,5 v 14 c 0,1.7 1.3,3 3,3 h 14 c 1.7,0 3,-1.3 3,-3 V 5 C 22,3.3 20.7,2 19,2 Z"
   id="path1"
   style="fill:#ffffff;fill-opacity:1" />
		</g>
	</g>
	
	
	
<g
   id="SVGRepo_bgCarrier"
   stroke-width="0"
   transform="matrix(0.74999996,0,0,0.74999996,1.4999999,-13.499999)" /><g
   id="SVGRepo_tracerCarrier"
   stroke-linecap="round"
   stroke-linejoin="round"
   transform="matrix(0.74999996,0,0,0.74999996,1.4999999,-13.499999)" /><g
   id="SVGRepo_iconCarrier"
   transform="matrix(0.53991983,0,0,0.53991983,3.3618039,3.3622363)"
   style="fill:#cad3f5;fill-opacity:1;stroke:none;stroke-opacity:1"><title
     id="title1">inkscape</title><path
     d="m 25.431,25.209 c -1.263,1.135 0.142,2.284 1.388,1.552 0.277,-0.281 -0.008,-1.27 -1.387,-1.552 z M 7.296,27.041 c 0.98,0.849 2.496,-0.211 2.949,-1.395 -0.95,-1.262 -4.507,0.046 -2.949,1.395 z m 18.655,-2.987 c 0,0.562 4.141,0.931 4.141,-0.132 -0.397,-0.733 -1.16,-1.222 -2.038,-1.222 -0.929,0 -1.731,0.549 -2.097,1.34 z M 13.233,2.216 2.161,13.545 c -3.74,4.632 2.547,4.094 5.241,5.427 0.967,0.988 -3.705,1.718 -2.738,2.707 0.966,0.988 5.846,1.904 6.814,2.892 0.966,0.988 -1.979,2.037 -1.012,3.024 0.966,0.99 3.203,0.052 3.621,2.334 0.297,1.63 4.029,0.7 5.853,-0.635 0.967,-0.988 -1.849,-0.896 -0.882,-1.884 2.403,-2.458 4.642,-0.892 5.465,-3.357 0.406,-1.217 -3.539,-1.876 -2.571,-2.864 2.782,-1.625 12.395,-2.682 7.833,-7.243 L 18.311,2.216 C 17.652,1.587 16.757,1.2 15.772,1.2 c -0.985,0 -1.88,0.387 -2.54,1.017 z m 4.408,0.796 4.38,4.449 c 0.207,0.229 0.333,0.533 0.333,0.868 0,0.226 -0.058,0.438 -0.159,0.623 L 22.198,8.945 20.024,7.206 19.597,9.782 17.779,8.823 14.87,10.66 13.907,6.786 12.344,9.49 H 9.953 C 8.978,9.49 8.865,8.253 9.749,7.368 11.295,5.7 13.069,3.999 14.034,3.013 14.5,2.56 15.136,2.281 15.838,2.281 c 0.702,0 1.338,0.279 1.804,0.733 L 17.641,3.013 Z m -7.057,16.576 c 0.296,0.184 4.771,1.093 5.865,1.275 0.379,0.08 0.11,0.47 -0.412,0.734 -1.178,0.314 -6.894,-2.008 -5.452,-2.008 z"
     id="path1-7"
     style="fill:#cad3f5;fill-opacity:1;stroke:none;stroke-opacity:1" /></g></g></g></g></svg>
