<?xml version="1.0" encoding="UTF-8" standalone="no"?>
<!-- Created with Inkscape (http://www.inkscape.org/) -->

<svg
   width="32"
   height="32"
   viewBox="0 0 32 32"
   version="1.1"
   id="svg1"
   xml:space="preserve"
   inkscape:export-filename="editor.svg"
   inkscape:export-xdpi="96"
   inkscape:export-ydpi="96"
   sodipodi:docname="files.svg"
   xmlns:inkscape="http://www.inkscape.org/namespaces/inkscape"
   xmlns:sodipodi="http://sodipodi.sourceforge.net/DTD/sodipodi-0.dtd"
   xmlns="http://www.w3.org/2000/svg"
   xmlns:svg="http://www.w3.org/2000/svg"><sodipodi:namedview
     id="namedview1"
     pagecolor="#ffffff"
     bordercolor="#111111"
     borderopacity="1"
     inkscape:showpageshadow="0"
     inkscape:pageopacity="0"
     inkscape:pagecheckerboard="1"
     inkscape:deskcolor="#d1d1d1"
     inkscape:document-units="px"><inkscape:page
       x="0"
       y="0"
       width="32"
       height="32"
       id="page1"
       margin="0"
       bleed="0" /></sodipodi:namedview><defs
     id="defs1" /><g
     inkscape:label="Layer 1"
     inkscape:groupmode="layer"
     id="layer1"><g
       style="fill:#000000"
       id="g10"
       transform="scale(1.3333334)"><g
         id="g9">
	<rect
   style="fill:#1e1e2e;fill-opacity:1;fill-rule:evenodd;stroke-width:0.800154"
   id="rect10"
   width="22.65597"
   height="22.440687"
   x="0.67201459"
   y="0.77965581"
   ry="6.6129174" /><g
   id="g2"
   style="fill:#ffffff;fill-opacity:1">
		<g
   id="g1"
   style="fill:#ffffff;fill-opacity:1">
			<path
   d="M 19,24 H 5 C 2.2,24 0,21.8 0,19 V 5 C 0,2.2 2.2,0 5,0 h 14 c 2.8,0 5,2.2 5,5 v 14 c 0,2.8 -2.2,5 -5,5 z M 5,2 C 3.3,2 2,3.3 2,5 v 14 c 0,1.7 1.3,3 3,3 h 14 c 1.7,0 3,-1.3 3,-3 V 5 C 22,3.3 20.7,2 19,2 Z"
   id="path1"
   style="fill:#ffffff;fill-opacity:1" />
		</g>
	</g>
	
	
	
<g
   id="SVGRepo_bgCarrier"
   stroke-width="0"
   transform="matrix(0.88205715,0,0,0.88205715,1.414246,0.86999582)" /><g
   id="SVGRepo_tracerCarrier"
   stroke-linecap="round"
   stroke-linejoin="round"
   transform="matrix(0.88205715,0,0,0.88205715,1.414246,0.86999582)" /><g
   id="SVGRepo_iconCarrier"
   transform="matrix(0.88205715,0,0,0.88205715,1.414246,0.86999582)"><path
     d="m 12,18 c 0,2.2091 -1.7909,4 -4,4 -2.20914,0 -4,-1.7909 -4,-4 0,-2.2091 1.79086,-4 4,-4 2.2091,0 4,1.7909 4,4 z"
     stroke="#1c274c"
     stroke-width="1.5"
     id="path1-2"
     style="fill:#1e1e2e;fill-opacity:1;stroke:#b7bdf8;stroke-opacity:1" /><path
     d="M 12.00121,12.618234 V 6.6182341"
     stroke="#1c274c"
     stroke-width="1.5"
     stroke-linecap="round"
     id="path2"
     style="stroke:#b7bdf8;stroke-opacity:1" /><path
     d="M 16.1167,10.0587 13.4833,8.74199 C 13.1184,8.55954 12.9359,8.46831 12.7852,8.35309 12.3949,8.05463 12.128,7.62291 12.0357,7.14028 12,6.95397 12,6.74998 12,6.34199 12,5.3709 12,4.88536 12.1196,4.55528 c 0.316,-0.8724 1.1905,-1.41289 2.1121,-1.30539 0.3487,0.04068 0.783,0.25782 1.6516,0.6921 l 2.6334,1.31672 c 0.3649,0.18246 0.5474,0.27369 0.6981,0.3889 0.3903,0.29847 0.6572,0.73019 0.7495,1.21282 C 20,7.04673 20,7.25073 20,7.65871 c 0,0.97109 0,1.45664 -0.1196,1.78672 -0.316,0.87237 -1.1905,1.41287 -2.1121,1.30537 -0.3487,-0.0407 -0.783,-0.2578 -1.6516,-0.6921 z"
     stroke="#1c274c"
     stroke-width="1.5"
     stroke-linecap="round"
     id="path3"
     style="fill:#1e1e2e;fill-opacity:1;stroke:#b7bdf8;stroke-opacity:1" /></g></g></g></g></svg>
