<?xml version="1.0" encoding="UTF-8" standalone="no"?>
<!-- Created with Inkscape (http://www.inkscape.org/) -->

<svg
   width="32"
   height="32"
   viewBox="0 0 32 32"
   version="1.1"
   id="svg1"
   xml:space="preserve"
   sodipodi:docname="terminal.svg"
   inkscape:export-filename="terminal.png"
   inkscape:export-xdpi="144"
   inkscape:export-ydpi="144"
   inkscape:version="1.4.2 (ebf0e940d0, 2025-05-08)"
   xmlns:inkscape="http://www.inkscape.org/namespaces/inkscape"
   xmlns:sodipodi="http://sodipodi.sourceforge.net/DTD/sodipodi-0.dtd"
   xmlns="http://www.w3.org/2000/svg"
   xmlns:svg="http://www.w3.org/2000/svg"><sodipodi:namedview
     id="namedview1"
     pagecolor="#ffffff"
     bordercolor="#111111"
     borderopacity="1"
     inkscape:showpageshadow="0"
     inkscape:pageopacity="0"
     inkscape:pagecheckerboard="1"
     inkscape:deskcolor="#d1d1d1"
     inkscape:document-units="px"
     inkscape:zoom="12.40625"
     inkscape:cx="16.040302"
     inkscape:cy="15.959698"
     inkscape:current-layer="layer1"><inkscape:page
       x="0"
       y="0"
       width="32"
       height="32"
       id="page2"
       margin="0"
       bleed="0" /></sodipodi:namedview><defs
     id="defs1" /><g
     inkscape:label="Layer 1"
     inkscape:groupmode="layer"
     id="layer1"><g
       style="fill:#000000"
       id="g10"
       transform="scale(1.3333334)"><g
         id="g9">
	<rect
   style="fill:#1e1e2e;fill-opacity:1;fill-rule:evenodd;stroke-width:0.800154"
   id="rect10"
   width="22.65597"
   height="22.440687"
   x="0.67201459"
   y="0.77965581"
   ry="6.6129174" /><g
   id="g2"
   style="fill:#ffffff;fill-opacity:1">
		<g
   id="g1"
   style="fill:#ffffff;fill-opacity:1">
			<path
   d="M 19,24 H 5 C 2.2,24 0,21.8 0,19 V 5 C 0,2.2 2.2,0 5,0 h 14 c 2.8,0 5,2.2 5,5 v 14 c 0,2.8 -2.2,5 -5,5 z M 5,2 C 3.3,2 2,3.3 2,5 v 14 c 0,1.7 1.3,3 3,3 h 14 c 1.7,0 3,-1.3 3,-3 V 5 C 22,3.3 20.7,2 19,2 Z"
   id="path1"
   style="fill:#ffffff;fill-opacity:1" />
		</g>
	</g>
	<g
   id="g4"
   style="fill:#f5c2e7;fill-opacity:1">
		<g
   id="g3"
   style="fill:#f5c2e7;fill-opacity:1">
			<path
   d="M 9,10 C 8.7,10 8.5,9.9 8.3,9.7 l -3,-3 c -0.4,-0.4 -0.4,-1 0,-1.4 0.4,-0.4 1,-0.4 1.4,0 l 3,3 c 0.4,0.4 0.4,1 0,1.4 C 9.5,9.9 9.3,10 9,10 Z"
   id="path2"
   style="fill:#f5c2e7;fill-opacity:1" />
		</g>
	</g>
	<g
   id="g6"
   style="fill:#f5c2e7;fill-opacity:1">
		<g
   id="g5"
   style="fill:#f5c2e7;fill-opacity:1">
			<path
   d="m 6,13 c -0.3,0 -0.5,-0.1 -0.7,-0.3 -0.4,-0.4 -0.4,-1 0,-1.4 l 3,-3 c 0.4,-0.4 1,-0.4 1.4,0 0.4,0.4 0.4,1 0,1.4 l -3,3 C 6.5,12.9 6.3,13 6,13 Z"
   id="path4"
   style="fill:#f5c2e7;fill-opacity:1" />
		</g>
	</g>
	<g
   id="g8"
   style="fill:#f5c2e7;fill-opacity:1">
		<g
   id="g7"
   style="fill:#f5c2e7;fill-opacity:1">
			<path
   d="m 15,13 h -4 c -0.6,0 -1,-0.4 -1,-1 0,-0.6 0.4,-1 1,-1 h 4 c 0.6,0 1,0.4 1,1 0,0.6 -0.4,1 -1,1 z"
   id="path6"
   style="fill:#f5c2e7;fill-opacity:1" />
		</g>
	</g>
</g></g></g></svg>
