<?xml version="1.0" encoding="UTF-8" standalone="no"?>
<!-- Created with Inkscape (http://www.inkscape.org/) -->

<svg
   width="32"
   height="32"
   viewBox="0 0 32 32"
   version="1.1"
   id="svg1"
   xml:space="preserve"
   inkscape:export-filename="inkscape.png"
   inkscape:export-xdpi="144"
   inkscape:export-ydpi="144"
   sodipodi:docname="wallpaper.svg"
   inkscape:version="1.4.2 (ebf0e940d0, 2025-05-08)"
   xmlns:inkscape="http://www.inkscape.org/namespaces/inkscape"
   xmlns:sodipodi="http://sodipodi.sourceforge.net/DTD/sodipodi-0.dtd"
   xmlns="http://www.w3.org/2000/svg"
   xmlns:svg="http://www.w3.org/2000/svg"><sodipodi:namedview
     id="namedview1"
     pagecolor="#ffffff"
     bordercolor="#111111"
     borderopacity="1"
     inkscape:showpageshadow="0"
     inkscape:pageopacity="0"
     inkscape:pagecheckerboard="1"
     inkscape:deskcolor="#d1d1d1"
     inkscape:document-units="px"
     inkscape:zoom="12.40625"
     inkscape:cx="16.040302"
     inkscape:cy="15.959698"
     inkscape:current-layer="layer1"><inkscape:page
       x="0"
       y="0"
       width="32"
       height="32"
       id="page1"
       margin="0"
       bleed="0" /></sodipodi:namedview><defs
     id="defs1" /><g
     inkscape:label="Layer 1"
     inkscape:groupmode="layer"
     id="layer1"><g
       style="fill:#000000"
       id="g10"
       transform="scale(1.3333334)"><g
         id="g9">
	<rect
   style="fill:#1e1e2e;fill-opacity:1;fill-rule:evenodd;stroke-width:0.800154"
   id="rect10"
   width="22.65597"
   height="22.440687"
   x="0.67201459"
   y="0.77965581"
   ry="6.6129174" /><g
   id="g2"
   style="fill:#ffffff;fill-opacity:1">
		<g
   id="g1"
   style="fill:#ffffff;fill-opacity:1">
			<path
   d="M 19,24 H 5 C 2.2,24 0,21.8 0,19 V 5 C 0,2.2 2.2,0 5,0 h 14 c 2.8,0 5,2.2 5,5 v 14 c 0,2.8 -2.2,5 -5,5 z M 5,2 C 3.3,2 2,3.3 2,5 v 14 c 0,1.7 1.3,3 3,3 h 14 c 1.7,0 3,-1.3 3,-3 V 5 C 22,3.3 20.7,2 19,2 Z"
   id="path1"
   style="fill:#ffffff;fill-opacity:1" />
		</g>
	</g>
	
	
	
<g
   id="SVGRepo_bgCarrier"
   stroke-width="0"
   transform="matrix(0.74999996,0,0,0.74999996,1.4999999,-13.499999)" /><g
   id="SVGRepo_tracerCarrier"
   stroke-linecap="round"
   stroke-linejoin="round"
   transform="matrix(0.74999996,0,0,0.74999996,1.4999999,-13.499999)" /><g
   id="SVGRepo_bgCarrier-2"
   stroke-width="0"
   transform="matrix(0.74999996,0,0,0.74999996,2.9999999,2.9999998)" /><g
   id="SVGRepo_tracerCarrier-3"
   stroke-linecap="round"
   stroke-linejoin="round"
   transform="matrix(0.74999996,0,0,0.74999996,2.9999999,2.9999998)" /><g
   id="SVGRepo_iconCarrier"
   transform="matrix(0.87529774,0,0,0.87529774,1.4964265,1.4964264)"
   style="fill:#cdd6f4;fill-opacity:1"><!-- Uploaded to: SVG Repo, www.svgrepo.com, Generator: SVG Repo Mixer Tools --><title
     id="title1">ic_fluent_wallpaper_24_regular</title><desc
     id="desc1">Created with Sketch.</desc><g
     id="ðŸ”-Product-Icons"
     stroke="none"
     stroke-width="1"
     fill="none"
     fill-rule="evenodd"
     style="fill:#cdd6f4;fill-opacity:1"><g
       id="ic_fluent_wallpaper_24_regular"
       fill="#212121"
       fill-rule="nonzero"
       style="fill:#cdd6f4;fill-opacity:1"><path
         d="m 14.50004,13.44355 0.154668,0.146273 5.828506,5.866695 0.01033,-0.07755 0.0065,-0.127805 v -5.502336 c 0,-0.414213 0.335786,-0.75 0.75,-0.75 0.379696,0 0.693491,0.282154 0.743153,0.64823 L 22,13.748832 v 5.502336 c 0,1.462531 -1.141705,2.658404 -2.582478,2.744981 l -0.167522,0.005 h -5.5 c -0.414214,0 -0.75,-0.335787 -0.75,-0.75 0,-0.379696 0.282154,-0.693491 0.648229,-0.743154 L 13.75,20.501168 h 5.5 c 0.04941,0 0.09815,-0.0029 0.146066,-0.0084 L 13.594048,14.650483 C 12.75721,13.813645 11.425187,13.773796 10.541189,14.530935 l -0.129122,0.119548 -5.8664197,5.834063 0.076548,0.01017 0.1278052,0.0065 H 10.25 l 0.101771,0.0068 C 10.717846,20.557677 11,20.871472 11,21.251168 c 0,0.379695 -0.282154,0.693491 -0.648229,0.743153 L 10.25,22.001168 h -5.5 l -0.1675223,-0.005 C 3.1993355,21.913035 2.0918149,20.807594 2.0054263,19.425338 L 2,19.251168 v -5.502336 l 0.00685,-0.10177 c 0.049659,-0.366076 0.3634542,-0.64823 0.74315,-0.64823 0.3796958,0 0.693491,0.282154 0.7431534,0.64823 L 3.5,13.748832 v 5.502336 l 0.009,0.146664 5.8424072,-5.808009 C 10.765375,12.175855 13.027574,12.127098 14.50004,13.44355 Z m 1.523496,-7.4317695 c 1.108383,0 2.006905,0.898522 2.006905,2.006905 0,1.1083831 -0.898522,2.0069055 -2.006905,2.0069055 -1.108383,0 -2.006905,-0.8985224 -2.006905,-2.0069055 0,-1.108383 0.898522,-2.006905 2.006905,-2.006905 z M 10.25,1.9988323 c 0.414214,0 0.75,0.3357865 0.75,0.75 0,0.3796958 -0.282154,0.693491 -0.648229,0.7431534 L 10.25,3.4988323 h -5.5 c -0.6472087,0 -1.1795339,0.4918747 -1.2435464,1.1221948 L 3.5,4.7488323 v 5.5023357 c 0,0.414213 -0.3357864,0.75 -0.75,0.75 -0.3796958,0 -0.693491,-0.282154 -0.7431534,-0.64823 L 2,10.251168 V 4.7488323 C 2,3.2863005 3.1417046,2.090428 4.5824777,2.0038511 L 4.75,1.9988323 Z m 9,0 0.167522,0.00502 c 1.383142,0.083114 2.490663,1.1885545 2.577052,2.5708113 L 22,4.7488323 v 5.5023357 l -0.0068,0.10177 c -0.04966,0.366076 -0.363457,0.64823 -0.743153,0.64823 -0.379696,0 -0.693491,-0.282154 -0.743153,-0.64823 L 20.5,10.251168 V 4.7488323 L 20.4935,4.6210271 C 20.433801,4.0327283 19.966104,3.5650309 19.377805,3.5052859 L 19.25,3.4988323 h -5.5 l -0.101771,-0.00685 C 13.282154,3.4423233 13,3.1285281 13,2.7488323 13,2.3691366 13.282154,2.0553414 13.648229,2.0056789 L 13.75,1.9988323 Z m -3.226464,5.5129482 c -0.279956,0 -0.506905,0.2269491 -0.506905,0.506905 0,0.279956 0.226949,0.5069051 0.506905,0.5069051 0.279956,0 0.506905,-0.2269491 0.506905,-0.5069051 0,-0.2799559 -0.226949,-0.506905 -0.506905,-0.506905 z"
         id="ðŸŽ¨-Color"
         style="fill:#cdd6f4;fill-opacity:1" /></g></g></g></g></g></g></svg>
